<?xml version="1.0" encoding="UTF-8"?>
<svg id="Artboard_4" data-name="Artboard 4" xmlns="http://www.w3.org/2000/svg" viewBox="0 0 2094.52 449.32">
  <defs>
    <style>
      .cls-1 {
        fill: #fff;
      }
    </style>
  </defs>
  <polygon class="cls-1" points="291.48 375.4 125.24 97.74 194.04 97.74 320.15 313.18 291.48 375.4"/>
  <polygon class="cls-1" points="133.57 97.74 169.64 155.58 64.66 156.15 64.66 203.11 161.58 203.11 199.97 265.04 64.66 265.04 64.66 317.12 231.32 316.95 267.15 375.4 0 375.4 0 97.74 133.57 97.74"/>
  <g>
    <polygon class="cls-1" points="275.21 224.42 405.73 -.24 349.14 224.42 275.21 224.42"/>
    <polygon class="cls-1" points="423.15 224.42 292.62 449.08 349.22 224.42 423.15 224.42"/>
  </g>
  <g>
    <path class="cls-1" d="M420.44,344.22v-88.16l31.31-31.62h86.95l31.31,31.62v88.16l-31.31,31.62h-86.95l-31.31-31.62ZM519.24,342.4l10.64-10.64v-63.23l-10.64-10.64h-48.03l-10.64,10.64v63.23l10.64,10.64h48.03Z"/>
    <path class="cls-1" d="M604.96,158.78h40.13v217.06h-40.13v-217.06Z"/>
    <path class="cls-1" d="M664.85,224.45h41.65l35.26,105.49h1.21l35.26-105.49h41.65l-58.06,151.39h-38.91l-58.06-151.39Z"/>
    <path class="cls-1" d="M832.05,344.83v-88.77l31.31-31.62h85.42l31.62,31.62v57.46h-108.22v19.46l9.73,10.03h49.55l9.12-9.42v-7.9h39.52v19.76l-30.1,30.4h-87.25l-30.71-31.01ZM940.27,285.55v-17.63l-10.34-10.64h-47.42l-10.34,10.64v17.63h68.1Z"/>
    <path class="cls-1" d="M1093.48,340.88v-142.88l34.96-34.96h103.97l34.35,34.35v32.53h-41.34v-17.33l-14.29-14.29h-60.8l-15.5,15.5v111.26l15.5,15.5h60.8l14.29-14.29v-17.33h41.34v32.53l-34.35,34.35h-103.97l-34.96-34.96Z"/>
    <path class="cls-1" d="M1294.12,158.78h40.13v89.07l23.41-23.41h48.34l33.74,33.74v117.65h-40.13v-106.7l-10.34-10.64h-26.14l-28.88,29.18v88.16h-40.13v-217.06Z"/>
    <path class="cls-1" d="M1470.14,347.87v-34.66l27.97-27.97h76.91v-19.15l-9.42-9.42h-45.6l-9.12,9.42v8.51h-39.52v-17.33l32.53-32.83h78.13l32.53,32.83v118.56h-36.18v-21.58l-22.5,21.58h-57.76l-27.97-27.97ZM1553.13,344.83l21.89-20.98v-10.03h-57.15l-8.21,8.21v15.2l7.6,7.6h35.87Z"/>
    <path class="cls-1" d="M1649.5,224.45h37.09v25.23l24.32-25.23h43.17v34.05h-34.96l-29.49,30.4v86.94h-40.13v-151.39Z"/>
    <path class="cls-1" d="M1912.76,224.45v186.05l-32.83,32.53h-82.38l-28.27-27.97v-20.67h40.13v9.12l5.78,6.08h47.12l10.34-10.64v-42.86l-20.97,19.76h-57.15l-31.31-31.62v-88.16l31.31-31.62h59.58l21.58,20.67v-20.67h37.09ZM1872.63,277.04l-20.67-18.54h-37.09l-11.55,11.86v59.58l11.55,11.86h33.14l24.62-25.23v-39.52Z"/>
    <path class="cls-1" d="M1946.2,344.83v-88.77l31.31-31.62h85.42l31.62,31.62v57.46h-108.22v19.46l9.73,10.03h49.55l9.12-9.42v-7.9h39.52v19.76l-30.1,30.4h-87.25l-30.71-31.01ZM2054.42,285.55v-17.63l-10.34-10.64h-47.42l-10.34,10.64v17.63h68.1Z"/>
  </g>
  <polygon class="cls-1" points="328.4 313.18 320.15 313.18 291.48 375.4 311.9 375.4 328.4 313.18"/>
</svg>