<?xml version="1.0" encoding="UTF-8"?>
<svg id="Layer_1" data-name="Layer 1" xmlns="http://www.w3.org/2000/svg" viewBox="0 0 2094.52 449.32">
  <defs>
    <style>
      .cls-1 {
        font-family: ChakraPetch-Bold, 'Chakra Petch';
        font-size: 304px;
        font-weight: 700;
      }

      .cls-1, .cls-2 {
        fill: #3cbeb6;
      }

      .cls-3 {
        letter-spacing: -.02em;
      }

      .cls-4 {
        letter-spacing: 0em;
      }

      .cls-5 {
        letter-spacing: 0em;
      }

      .cls-6 {
        letter-spacing: 0em;
      }
    </style>
  </defs>
  <polygon class="cls-2" points="291.48 375.64 125.24 97.98 194.04 97.98 320.15 313.41 291.48 375.64"/>
  <polygon class="cls-2" points="133.57 97.98 169.64 155.82 64.66 156.39 64.66 203.35 161.58 203.35 199.97 265.28 64.66 265.28 64.66 317.36 231.32 317.19 267.15 375.64 0 375.64 0 97.98 133.57 97.98"/>
  <g>
    <polygon class="cls-2" points="275.21 224.66 405.73 0 349.14 224.66 275.21 224.66"/>
    <polygon class="cls-2" points="423.15 224.66 292.62 449.32 349.22 224.66 423.15 224.66"/>
  </g>
  <text class="cls-1" transform="translate(405.24 376.07)"><tspan x="0" y="0">ol</tspan><tspan class="cls-5" x="259.61" y="0">v</tspan><tspan class="cls-4" x="411.61" y="0">e Cha</tspan><tspan class="cls-3" x="1226.02" y="0">r</tspan><tspan class="cls-6" x="1342.76" y="0">ge</tspan></text>
  <polygon class="cls-2" points="328.4 313.41 320.15 313.41 291.48 375.64 311.9 375.64 328.4 313.41"/>
</svg>